<?xml version="1.0" encoding="UTF-8"?>
<svg xmlns="http://www.w3.org/2000/svg" version="1.1" width="500" height="500" viewBox="0 0 500 500"><rect x="0" y="0" width="500" height="500" fill="#ffffff"/><g transform="scale(17.241)"><g transform="translate(0,0)"><path fill-rule="evenodd" d="M8 0L8 1L9 1L9 2L8 2L8 5L9 5L9 4L11 4L11 5L10 5L10 10L8 10L8 9L9 9L9 8L8 8L8 9L7 9L7 8L6 8L6 9L5 9L5 10L4 10L4 11L3 11L3 10L2 10L2 9L4 9L4 8L0 8L0 13L1 13L1 11L3 11L3 13L2 13L2 15L1 15L1 16L0 16L0 17L1 17L1 18L0 18L0 19L1 19L1 18L2 18L2 20L1 20L1 21L4 21L4 20L5 20L5 19L7 19L7 18L8 18L8 20L6 20L6 21L8 21L8 22L9 22L9 23L10 23L10 24L9 24L9 25L8 25L8 29L9 29L9 28L10 28L10 29L12 29L12 28L14 28L14 27L15 27L15 28L17 28L17 26L19 26L19 27L18 27L18 29L19 29L19 28L20 28L20 29L22 29L22 26L19 26L19 25L18 25L18 24L20 24L20 25L24 25L24 26L25 26L25 25L26 25L26 26L27 26L27 25L28 25L28 27L27 27L27 29L28 29L28 27L29 27L29 24L26 24L26 22L27 22L27 23L28 23L28 22L29 22L29 21L27 21L27 18L28 18L28 15L29 15L29 13L27 13L27 12L26 12L26 11L28 11L28 12L29 12L29 11L28 11L28 10L29 10L29 8L28 8L28 10L26 10L26 11L25 11L25 13L27 13L27 14L24 14L24 12L23 12L23 13L22 13L22 12L20 12L20 11L24 11L24 10L25 10L25 9L27 9L27 8L24 8L24 10L23 10L23 9L22 9L22 8L21 8L21 6L20 6L20 5L21 5L21 4L20 4L20 3L21 3L21 2L20 2L20 3L19 3L19 5L17 5L17 4L18 4L18 3L16 3L16 2L17 2L17 1L18 1L18 0L17 0L17 1L16 1L16 2L14 2L14 0L12 0L12 1L11 1L11 0L10 0L10 1L9 1L9 0ZM19 0L19 1L21 1L21 0ZM11 2L11 4L12 4L12 3L13 3L13 2ZM13 4L13 5L12 5L12 6L11 6L11 8L12 8L12 6L13 6L13 11L11 11L11 13L10 13L10 14L9 14L9 13L8 13L8 12L7 12L7 11L8 11L8 10L7 10L7 9L6 9L6 10L7 10L7 11L6 11L6 12L5 12L5 13L4 13L4 14L5 14L5 13L6 13L6 14L7 14L7 13L8 13L8 14L9 14L9 15L3 15L3 16L8 16L8 17L9 17L9 15L10 15L10 16L11 16L11 17L10 17L10 18L11 18L11 19L12 19L12 20L8 20L8 21L10 21L10 22L11 22L11 23L14 23L14 24L12 24L12 26L11 26L11 27L10 27L10 28L12 28L12 26L13 26L13 27L14 27L14 26L13 26L13 25L15 25L15 23L16 23L16 25L17 25L17 24L18 24L18 22L17 22L17 21L14 21L14 20L16 20L16 19L15 19L15 17L16 17L16 18L18 18L18 16L19 16L19 20L18 20L18 21L20 21L20 19L21 19L21 20L22 20L22 18L24 18L24 19L23 19L23 20L26 20L26 19L25 19L25 18L26 18L26 17L27 17L27 15L24 15L24 14L23 14L23 15L22 15L22 14L20 14L20 15L18 15L18 14L19 14L19 13L20 13L20 12L19 12L19 11L20 11L20 10L21 10L21 9L20 9L20 10L19 10L19 11L18 11L18 10L17 10L17 12L16 12L16 6L17 6L17 7L18 7L18 6L17 6L17 5L15 5L15 4ZM8 6L8 7L9 7L9 6ZM14 6L14 7L15 7L15 6ZM19 6L19 8L20 8L20 6ZM14 8L14 9L15 9L15 8ZM11 9L11 10L12 10L12 9ZM14 10L14 11L13 11L13 12L12 12L12 13L11 13L11 14L10 14L10 15L11 15L11 16L12 16L12 17L13 17L13 18L14 18L14 16L12 16L12 14L13 14L13 15L15 15L15 14L16 14L16 17L17 17L17 14L18 14L18 12L17 12L17 13L15 13L15 10ZM6 12L6 13L7 13L7 12ZM21 15L21 16L22 16L22 15ZM23 15L23 17L25 17L25 16L24 16L24 15ZM1 16L1 17L2 17L2 18L3 18L3 19L5 19L5 18L7 18L7 17L5 17L5 18L4 18L4 17L2 17L2 16ZM13 21L13 22L14 22L14 23L15 23L15 22L14 22L14 21ZM21 21L21 24L24 24L24 21ZM22 22L22 23L23 23L23 22ZM10 24L10 25L9 25L9 26L10 26L10 25L11 25L11 24ZM15 26L15 27L16 27L16 26ZM23 28L23 29L24 29L24 28ZM25 28L25 29L26 29L26 28ZM0 0L0 7L7 7L7 0ZM1 1L1 6L6 6L6 1ZM2 2L2 5L5 5L5 2ZM22 0L22 7L29 7L29 0ZM23 1L23 6L28 6L28 1ZM24 2L24 5L27 5L27 2ZM0 22L0 29L7 29L7 22ZM1 23L1 28L6 28L6 23ZM2 24L2 27L5 27L5 24Z" fill="#000000"/></g></g></svg>
